<svg fill="none" height="50" viewBox="0 0 50 50" width="50" xmlns="http://www.w3.org/2000/svg">
    <path
        d="M49.3201 17.0703L45.453 13.2036C44.535 12.2858 43.0507 12.2858 42.1425 13.2036L18.7544 36.5889L7.87578 25.7018C6.95784 24.784 5.4735 24.784 4.56532 25.7018L0.68846 29.5782C-0.229487 30.496 -0.229487 31.9802 0.68846 32.898L17.0943 49.3116C18.0123 50.2295 19.4966 50.2295 20.4048 49.3116L49.3103 20.3901C50.2283 19.4625 50.2283 17.9783 49.3201 17.0703ZM17.6509 27.4203C18.2564 28.0354 19.2525 28.0354 19.8579 27.4203L40.1699 7.09125C40.7754 6.4761 40.7754 5.48992 40.1699 4.88454L35.756 0.461358C35.1505 -0.153786 34.1544 -0.153786 33.549 0.461358L18.7544 15.2541L13.3444 9.83498C12.7389 9.21984 11.7429 9.21984 11.1374 9.83498L6.7137 14.2582C6.10825 14.8733 6.10825 15.8595 6.7137 16.4649L17.6509 27.4203Z"
        fill="#346DBA" />
</svg>
